<?xml version="1.0" encoding="utf-8" standalone="no"?><!DOCTYPE svg PUBLIC "-//W3C//DTD SVG 20010904//EN" "http://www.w3.org/TR/2001/REC-SVG-20010904/DTD/svg10.dtd"><svg xmlns="http://www.w3.org/2000/svg" width="2825" height="1564" xmlns:xlink="http://www.w3.org/1999/xlink"><source><![CDATA[main -->> parse_command: options
parse_command -->> show_help: --help, -h
show_help --> Done:
parse_command ->> validate_config:
note left of validate_config: extract_config() - DDNS fields
validate_config -> Done: - invalid configration\n- no DDNS records
validate_config ->> proc_ddns_records:
proc_ddns_records ->> dp_sync_ddns:
note right of proc_ddns_records: get_ddns_field() - DDNS fields
dp_sync_ddns ->> ip_addr_show:
ip_addr_show -> proc_ddns_records: error
ip_addr_show ->> ip_nslookup:
ip_nslookup -> proc_ddns_records: error
ip_nslookup ->> dp_sync_ddns: DDNS up to date
dp_sync_ddns ->> proc_ddns_records: DDNS up to date
note right of dp_sync_ddns: --force--update
dp_sync_ddns -->> dp_ddns_query:
note over dp_ddns_query: logger()
dp_sync_ddns ->> dp_ddns_query:
dp_ddns_query ->> dp_api_req:
note over dp_api_req: logger() 
dp_api_req ->> dp_sync_ddns:
dp_sync_ddns ->> dp_api_err:
note over dp_api_err: logger()
dp_api_err ->> dp_sync_ddns:
note left of dp_api_err: extract() - API error code, message
dp_sync_ddns -> proc_ddns_records: - error\n - DDNS up to date(cache outdated)
note right of dp_sync_ddns: --force--update
dp_sync_ddns -->> dp_ddns_update:
note over dp_ddns_update: logger()
dp_sync_ddns ->> dp_ddns_update:
note over dp_api_req: logger()
dp_ddns_update ->> dp_api_req:
dp_api_req ->> dp_sync_ddns:
dp_sync_ddns ->> dp_api_err:
dp_api_err ->> dp_sync_ddns:
note left of dp_api_err: extract_api_err - API error code, message
dp_sync_ddns -> proc_ddns_records:  error
note over dp_sync_ddns,proc_ddns_records: ⮬ next DDNS record ⮝
dp_sync_ddns -> proc_ddns_records:
proc_ddns_records -> Done: ✦ no more DDNS records ✦]]></source><desc></desc><defs><marker viewBox="0 0 5 5" markerWidth="5" markerHeight="5" orient="auto" refX="5" refY="2.5" id="markerArrowBlock"><path d="M 0 0 L 5 2.5 L 0 5 z"></path></marker><marker viewBox="0 0 9.6 16" markerWidth="4" markerHeight="16" orient="auto" refX="9.6" refY="8" id="markerArrowOpen"><path d="M 9.6,8 1.92,16 0,13.7 5.76,8 0,2.286 1.92,0 9.6,8 z"></path></marker></defs><g class="title"></g><g class="actor"><path d="M10,20C53.8,17.7 47.3,22.3 67.7,20.0C66.0,51.9 69.4,42.7 67.7,62.0C34.1,59.7 58.1,64.3 10.0,62.0C8.3,52.7 11.7,51.9 10.0,20.0" stroke="#000000" fill="#ffffff" style="stroke-width: 2;"></path><text x="20" y="46" style="font-size: 16px; font-family: danielbd;"><tspan x="20">main</tspan></text></g><g class="actor"><path d="M10,1502.400001525879C53.8,1504.7 43.2,1500.1 67.7,1502.4C69.4,1534.3 66.0,1512.5 67.7,1544.4C44.8,1546.7 23.8,1542.1 10.0,1544.4C11.7,1521.7 8.3,1521.9 10.0,1502.4" stroke="#000000" fill="#ffffff" style="stroke-width: 2;"></path><text x="20" y="1528.400001525879" style="font-size: 16px; font-family: danielbd;"><tspan x="20">main</tspan></text></g><path d="M38.8,62.0C-18.8,942.4 96.5,568.6 38.8,1502.4" stroke="#000000" fill="none" style="stroke-width: 2;"></path><g class="actor"><path d="M87.6875,20C190.6,13.3 163.6,26.7 256.3,20.0C254.6,30.1 258.0,29.6 256.3,62.0C229.3,68.7 215.8,55.3 87.7,62.0C89.4,42.7 86.0,51.9 87.7,20.0" stroke="#000000" fill="#ffffff" style="stroke-width: 2;"></path><text x="97.6875" y="44.5" style="font-size: 16px; font-family: danielbd;"><tspan x="97.6875">parse_command</tspan></text></g><g class="actor"><path d="M87.6875,1502.400001525879C114.7,1495.7 182.2,1509.1 256.3,1502.4C254.6,1512.5 258.0,1526.9 256.3,1544.4C179.5,1537.7 207.9,1551.1 87.7,1544.4C89.4,1537.7 86.0,1525.6 87.7,1502.4" stroke="#000000" fill="#ffffff" style="stroke-width: 2;"></path><text x="97.6875" y="1526.900001525879" style="font-size: 16px; font-family: danielbd;"><tspan x="97.6875">parse_command</tspan></text></g><path d="M172.0,62.0C229.6,292.5 114.4,1073.8 172.0,1502.4" stroke="#000000" fill="none" style="stroke-width: 2;"></path><g class="actor"><path d="M276.3203125,20C317.7,15.2 302.4,24.8 397.4,20.0C395.7,46.6 399.1,34.0 397.4,62.0C361.7,57.2 295.7,66.8 276.3,62.0C278.0,30.1 274.6,51.9 276.3,20.0" stroke="#000000" fill="#ffffff" style="stroke-width: 2;"></path><text x="286.3203125" y="44.5" style="font-size: 16px; font-family: danielbd;"><tspan x="286.3203125">show_help</tspan></text></g><g class="actor"><path d="M276.3203125,1502.400001525879C368.3,1507.2 364.8,1497.6 397.4,1502.4C395.7,1512.8 399.1,1534.3 397.4,1544.4C305.4,1549.2 343.1,1539.6 276.3,1544.4C278.0,1520.2 274.6,1534.3 276.3,1502.4" stroke="#000000" fill="#ffffff" style="stroke-width: 2;"></path><text x="286.3203125" y="1526.900001525879" style="font-size: 16px; font-family: danielbd;"><tspan x="286.3203125">show_help</tspan></text></g><path d="M336.9,62.0C279.2,647.1 394.5,1042.8 336.9,1502.4" stroke="#000000" fill="none" style="stroke-width: 2;"></path><g class="actor"><path d="M417.3984375,20C470.4,22.6 443.0,17.4 481.8,20.0C480.2,29.6 483.5,30.9 481.8,62.0C471.5,59.4 456.2,64.6 417.4,62.0C419.1,39.6 415.7,26.7 417.4,20.0" stroke="#000000" fill="#ffffff" style="stroke-width: 2;"></path><text x="428.3984375" y="46" style="font-size: 16px; font-family: danielbd;"><tspan x="427.3984375">Done</tspan></text></g><g class="actor"><path d="M417.3984375,1502.400001525879C447.0,1499.8 465.2,1505.0 481.8,1502.4C480.2,1533.9 483.5,1518.2 481.8,1544.4C436.7,1541.8 436.0,1547.0 417.4,1544.4C419.1,1510.2 415.7,1512.5 417.4,1502.4" stroke="#000000" fill="#ffffff" style="stroke-width: 2;"></path><text x="428.3984375" y="1528.400001525879" style="font-size: 16px; font-family: danielbd;"><tspan x="427.3984375">Done</tspan></text></g><path d="M449.6,62.0C507.2,749.1 392.0,407.7 449.6,1502.4" stroke="#000000" fill="none" style="stroke-width: 2;"></path><g class="actor"><path d="M702.109375,20C809.9,26.2 772.0,13.8 856.8,20.0C858.5,55.3 855.1,51.9 856.8,62.0C832.0,55.8 806.3,68.2 702.1,62.0C703.8,52.8 700.4,37.0 702.1,20.0" stroke="#000000" fill="#ffffff" style="stroke-width: 2;"></path><text x="712.109375" y="44" style="font-size: 16px; font-family: danielbd;"><tspan x="712.109375">validate_config</tspan></text></g><g class="actor"><path d="M702.109375,1502.400001525879C726.9,1496.2 827.9,1508.6 856.8,1502.4C858.5,1515.0 855.1,1512.5 856.8,1544.4C743.6,1538.2 726.9,1550.6 702.1,1544.4C703.8,1537.7 700.4,1534.3 702.1,1502.4" stroke="#000000" fill="#ffffff" style="stroke-width: 2;"></path><text x="712.109375" y="1526.400001525879" style="font-size: 16px; font-family: danielbd;"><tspan x="712.109375">validate_config</tspan></text></g><path d="M779.4,62.0C837.1,672.5 721.8,1107.0 779.4,1502.4" stroke="#000000" fill="none" style="stroke-width: 2;"></path><g class="actor"><path d="M876.78125,20C1053.6,11.6 910.5,28.4 1087.3,20.0C1088.9,30.1 1085.6,51.9 1087.3,62.0C1036.7,70.4 1053.6,53.6 876.8,62.0C878.5,33.3 875.1,49.8 876.8,20.0" stroke="#000000" fill="#ffffff" style="stroke-width: 2;"></path><text x="886.78125" y="44.5" style="font-size: 16px; font-family: danielbd;"><tspan x="886.78125">proc_ddns_records</tspan></text></g><g class="actor"><path d="M876.78125,1502.400001525879C1053.6,1510.8 1036.7,1494.0 1087.3,1502.4C1085.6,1512.5 1088.9,1520.2 1087.3,1544.4C962.2,1552.8 1005.0,1536.0 876.8,1544.4C875.1,1537.7 878.5,1509.1 876.8,1502.4" stroke="#000000" fill="#ffffff" style="stroke-width: 2;"></path><text x="886.78125" y="1526.900001525879" style="font-size: 16px; font-family: danielbd;"><tspan x="886.78125">proc_ddns_records</tspan></text></g><path d="M982.0,62.0C924.4,900.7 1039.6,407.7 982.0,1502.4" stroke="#000000" fill="none" style="stroke-width: 2;"></path><g class="actor"><path d="M1248.3984375,20C1329.4,13.5 1365.5,26.5 1410.4,20.0C1408.7,51.9 1412.1,49.6 1410.4,62.0C1384.5,55.5 1302.3,68.5 1248.4,62.0C1246.7,26.7 1250.1,55.3 1248.4,20.0" stroke="#000000" fill="#ffffff" style="stroke-width: 2;"></path><text x="1258.3984375" y="44" style="font-size: 16px; font-family: danielbd;"><tspan x="1258.3984375">dp_sync_ddns</tspan></text></g><g class="actor"><path d="M1248.3984375,1502.400001525879C1371.5,1495.9 1309.1,1508.9 1410.4,1502.4C1408.7,1514.3 1412.1,1522.8 1410.4,1544.4C1287.3,1550.9 1315.5,1537.9 1248.4,1544.4C1246.7,1522.7 1250.1,1528.0 1248.4,1502.4" stroke="#000000" fill="#ffffff" style="stroke-width: 2;"></path><text x="1258.3984375" y="1526.400001525879" style="font-size: 16px; font-family: danielbd;"><tspan x="1258.3984375">dp_sync_ddns</tspan></text></g><path d="M1329.4,62.0C1387.0,407.7 1271.8,292.5 1329.4,1502.4" stroke="#000000" fill="none" style="stroke-width: 2;"></path><g class="actor"><path d="M1430.4296875,20C1517.1,13.3 1467.4,26.7 1597.1,20.0C1595.4,44.6 1598.8,47.5 1597.1,62.0C1470.4,55.3 1531.3,68.7 1430.4,62.0C1428.7,51.9 1432.1,30.1 1430.4,20.0" stroke="#000000" fill="#ffffff" style="stroke-width: 2;"></path><text x="1440.4296875" y="44.5" style="font-size: 16px; font-family: danielbd;"><tspan x="1440.4296875">ip_addr_show</tspan></text></g><g class="actor"><path d="M1430.4296875,1502.400001525879C1559.4,1495.7 1457.1,1509.1 1597.1,1502.4C1595.4,1531.2 1598.8,1525.0 1597.1,1544.4C1470.4,1537.7 1484.0,1551.1 1430.4,1544.4C1432.1,1532.8 1428.7,1534.3 1430.4,1502.4" stroke="#000000" fill="#ffffff" style="stroke-width: 2;"></path><text x="1440.4296875" y="1526.900001525879" style="font-size: 16px; font-family: danielbd;"><tspan x="1440.4296875">ip_addr_show</tspan></text></g><path d="M1513.8,62.0C1456.1,292.5 1571.4,1181.8 1513.8,1502.4" stroke="#000000" fill="none" style="stroke-width: 2;"></path><g class="actor"><path d="M1617.0859375,20C1663.6,14.8 1648.4,25.2 1747.7,20.0C1749.3,44.1 1746.0,26.7 1747.7,62.0C1653.2,67.2 1716.3,56.8 1617.1,62.0C1615.4,37.0 1618.8,46.5 1617.1,20.0" stroke="#000000" fill="#ffffff" style="stroke-width: 2;"></path><text x="1627.0859375" y="44.5" style="font-size: 16px; font-family: danielbd;"><tspan x="1627.0859375">ip_nslookup</tspan></text></g><g class="actor"><path d="M1617.0859375,1502.400001525879C1726.8,1497.2 1651.5,1507.6 1747.7,1502.4C1746.0,1520.2 1749.3,1526.4 1747.7,1544.4C1716.3,1539.2 1726.8,1549.6 1617.1,1544.4C1618.8,1528.9 1615.4,1534.3 1617.1,1502.4" stroke="#000000" fill="#ffffff" style="stroke-width: 2;"></path><text x="1627.0859375" y="1526.900001525879" style="font-size: 16px; font-family: danielbd;"><tspan x="1627.0859375">ip_nslookup</tspan></text></g><path d="M1682.4,62.0C1624.8,292.5 1740.0,735.4 1682.4,1502.4" stroke="#000000" fill="none" style="stroke-width: 2;"></path><g class="actor"><path d="M1767.6640625,20C1828.2,27.1 1892.3,12.9 1944.6,20.0C1942.9,48.8 1946.3,44.4 1944.6,62.0C1895.7,54.9 1810.1,69.1 1767.7,62.0C1769.3,32.3 1766.0,26.7 1767.7,20.0" stroke="#000000" fill="#ffffff" style="stroke-width: 2;"></path><text x="1777.6640625" y="44" style="font-size: 16px; font-family: danielbd;"><tspan x="1777.6640625">dp_ddns_query</tspan></text></g><g class="actor"><path d="M1767.6640625,1502.400001525879C1796.0,1509.5 1899.5,1495.3 1944.6,1502.4C1946.3,1512.5 1942.9,1509.1 1944.6,1544.4C1836.5,1551.5 1897.8,1537.3 1767.7,1544.4C1769.3,1509.1 1766.0,1527.9 1767.7,1502.4" stroke="#000000" fill="#ffffff" style="stroke-width: 2;"></path><text x="1777.6640625" y="1526.400001525879" style="font-size: 16px; font-family: danielbd;"><tspan x="1777.6640625">dp_ddns_query</tspan></text></g><path d="M1856.1,62.0C1913.7,1156.7 1798.5,1271.9 1856.1,1502.4" stroke="#000000" fill="none" style="stroke-width: 2;"></path><g class="actor"><path d="M1964.5703125,20C1997.9,14.4 2070.2,25.6 2103.6,20.0C2105.2,53.6 2101.9,39.9 2103.6,62.0C2052.8,56.4 2017.0,67.6 1964.6,62.0C1962.9,26.7 1966.3,30.1 1964.6,20.0" stroke="#000000" fill="#ffffff" style="stroke-width: 2;"></path><text x="1974.5703125" y="44" style="font-size: 16px; font-family: danielbd;"><tspan x="1974.5703125">dp_api_req</tspan></text></g><g class="actor"><path d="M1964.5703125,1502.400001525879C2016.8,1508.0 2018.7,1496.8 2103.6,1502.4C2101.9,1537.7 2105.2,1515.6 2103.6,1544.4C2049.8,1550.0 2045.5,1538.8 1964.6,1544.4C1962.9,1531.6 1966.3,1520.0 1964.6,1502.4" stroke="#000000" fill="#ffffff" style="stroke-width: 2;"></path><text x="1974.5703125" y="1526.400001525879" style="font-size: 16px; font-family: danielbd;"><tspan x="1974.5703125">dp_api_req</tspan></text></g><path d="M2034.1,62.0C1976.4,1271.9 2091.7,292.5 2034.1,1502.4" stroke="#000000" fill="none" style="stroke-width: 2;"></path><g class="actor"><path d="M2403.85546875,20C2476.4,25.6 2473.6,14.4 2543.8,20.0C2545.5,52.4 2542.1,31.2 2543.8,62.0C2472.7,56.4 2456.7,67.6 2403.9,62.0C2405.5,31.0 2402.2,31.8 2403.9,20.0" stroke="#000000" fill="#ffffff" style="stroke-width: 2;"></path><text x="2413.85546875" y="44.5" style="font-size: 16px; font-family: danielbd;"><tspan x="2413.85546875">dp_api_err</tspan></text></g><g class="actor"><path d="M2403.85546875,1502.400001525879C2510.2,1508.0 2446.3,1496.8 2543.8,1502.4C2542.1,1523.6 2545.5,1535.0 2543.8,1544.4C2487.1,1550.0 2521.4,1538.8 2403.9,1544.4C2405.5,1514.6 2402.2,1512.5 2403.9,1502.4" stroke="#000000" fill="#ffffff" style="stroke-width: 2;"></path><text x="2413.85546875" y="1526.900001525879" style="font-size: 16px; font-family: danielbd;"><tspan x="2413.85546875">dp_api_err</tspan></text></g><path d="M2473.8,62.0C2531.4,407.7 2416.2,1156.7 2473.8,1502.4" stroke="#000000" fill="none" style="stroke-width: 2;"></path><g class="actor"><path d="M2563.80078125,20C2662.0,27.4 2660.1,12.6 2749.8,20.0C2748.1,39.2 2751.5,55.3 2749.8,62.0C2705.2,54.6 2720.1,69.4 2563.8,62.0C2562.1,36.3 2565.5,39.9 2563.8,20.0" stroke="#000000" fill="#ffffff" style="stroke-width: 2;"></path><text x="2573.80078125" y="44.5" style="font-size: 16px; font-family: danielbd;"><tspan x="2573.80078125">dp_ddns_update</tspan></text></g><g class="actor"><path d="M2563.80078125,1502.400001525879C2720.1,1495.0 2667.5,1509.8 2749.8,1502.4C2748.1,1514.8 2751.5,1519.3 2749.8,1544.4C2701.7,1551.8 2720.1,1537.0 2563.8,1544.4C2562.1,1537.7 2565.5,1517.1 2563.8,1502.4" stroke="#000000" fill="#ffffff" style="stroke-width: 2;"></path><text x="2573.80078125" y="1526.900001525879" style="font-size: 16px; font-family: danielbd;"><tspan x="2573.80078125">dp_ddns_update</tspan></text></g><path d="M2656.8,62.0C2714.4,818.2 2599.2,1127.1 2656.8,1502.4" stroke="#000000" fill="none" style="stroke-width: 2;"></path><g class="signal"><text x="75.533203125" y="90" style="font-size: 16px; font-family: danielbd;"><tspan x="75.533203125">options</tspan></text><path d="M38.8,102.0C140.0,107.3 112.0,96.7 172.0,102.0" stroke="#000000" fill="none" style="stroke-width: 2; stroke-dasharray: 6, 2; marker-end: url(&quot;#markerArrowOpen&quot;);"></path></g><g class="signal"><text x="216.923828125" y="130.5" style="font-size: 16px; font-family: danielbd;"><tspan x="216.923828125">--help, -h</tspan></text><path d="M172.0,143.0C233.9,136.4 270.1,149.6 336.9,143.0" stroke="#000000" fill="none" style="stroke-width: 2; stroke-dasharray: 6, 2; marker-end: url(&quot;#markerArrowOpen&quot;);"></path></g><g class="signal"><text x="393.23828125" y="168" style="font-size: 16px; font-family: danielbd;"><tspan x="393.23828125"></tspan></text><path d="M336.9,163.0C397.9,167.5 424.2,158.5 449.6,163.0" stroke="#000000" fill="none" style="stroke-width: 2; stroke-dasharray: 6, 2; marker-end: url(&quot;#markerArrowBlock&quot;);"></path></g><g class="signal"><text x="475.724609375" y="188" style="font-size: 16px; font-family: danielbd;"><tspan x="475.724609375"></tspan></text><path d="M172.0,183.0C458.2,158.7 522.4,207.3 779.4,183.0" stroke="#000000" fill="none" style="stroke-width: 2; marker-end: url(&quot;#markerArrowOpen&quot;);"></path></g><g class="note"><path d="M469.6171875,203C689.9,191.4 713.1,214.6 759.4,203.0C758.2,223.4 760.7,229.9 759.4,235.0C689.9,223.4 713.1,246.6 469.6,235.0C468.3,219.6 470.9,228.7 469.6,203.0" stroke="#000000" fill="#ffffff" style="stroke-width: 2;"></path><text x="475.6171875" y="222" style="font-size: 16px; font-family: danielbd;"><tspan x="474.6171875">extract_config() - DDNS fields</tspan></text></g><g class="signal"><text x="528.1328125" y="255.89999961853027" style="font-size: 16px; font-family: danielbd;"><tspan x="528.1328125">- invalid configration</tspan><tspan dy="1.2em" x="528.1328125">- no DDNS records</tspan></text><path d="M779.4,291.2C627.0,304.4 605.6,278.0 449.6,291.2" stroke="#000000" fill="none" style="stroke-width: 2; marker-end: url(&quot;#markerArrowBlock&quot;);"></path></g><g class="signal"><text x="880.734375" y="316.20000076293945" style="font-size: 16px; font-family: danielbd;"><tspan x="880.734375"></tspan></text><path d="M779.4,311.2C811.9,319.3 852.0,303.1 982.0,311.2" stroke="#000000" fill="none" style="stroke-width: 2; marker-end: url(&quot;#markerArrowOpen&quot;);"></path></g><g class="signal"><text x="1155.71875" y="336.20000076293945" style="font-size: 16px; font-family: danielbd;"><tspan x="1155.71875"></tspan></text><path d="M982.0,331.2C1076.3,345.1 1205.7,317.3 1329.4,331.2" stroke="#000000" fill="none" style="stroke-width: 2; marker-end: url(&quot;#markerArrowOpen&quot;);"></path></g><g class="note"><path d="M1002.0234375,351.20000076293945C1120.7,338.9 1136.9,363.5 1309.4,351.2C1310.7,370.8 1308.1,372.7 1309.4,383.2C1173.6,370.9 1150.5,395.5 1002.0,383.2C1000.7,375.5 1003.3,374.4 1002.0,351.2" stroke="#000000" fill="#ffffff" style="stroke-width: 2;"></path><text x="1012.0234375" y="370.20000076293945" style="font-size: 16px; font-family: danielbd;"><tspan x="1007.0234375">get_ddns_field() - DDNS fields</tspan></text></g><g class="signal"><text x="1421.5859375" y="408.20000076293945" style="font-size: 16px; font-family: danielbd;"><tspan x="1421.5859375"></tspan></text><path d="M1329.4,403.2C1446.5,395.8 1373.7,410.6 1513.8,403.2" stroke="#000000" fill="none" style="stroke-width: 2; marker-end: url(&quot;#markerArrowOpen&quot;);"></path></g><g class="signal"><text x="1223.28515625" y="433.20000076293945" style="font-size: 16px; font-family: danielbd;"><tspan x="1222.28515625">error</tspan></text><path d="M1513.8,439.2C1109.6,460.5 1193.6,417.9 982.0,439.2" stroke="#000000" fill="none" style="stroke-width: 2; marker-end: url(&quot;#markerArrowBlock&quot;);"></path></g><g class="signal"><text x="1598.06640625" y="464.20000076293945" style="font-size: 16px; font-family: danielbd;"><tspan x="1598.06640625"></tspan></text><path d="M1513.8,459.2C1626.4,452.5 1580.5,465.9 1682.4,459.2" stroke="#000000" fill="none" style="stroke-width: 2; marker-end: url(&quot;#markerArrowOpen&quot;);"></path></g><g class="signal"><text x="1307.59375" y="489.20000076293945" style="font-size: 16px; font-family: danielbd;"><tspan x="1306.59375">error</tspan></text><path d="M1682.4,495.2C1200.2,523.2 1285.7,467.2 982.0,495.2" stroke="#000000" fill="none" style="stroke-width: 2; marker-end: url(&quot;#markerArrowBlock&quot;);"></path></g><g class="signal"><text x="1426.62890625" y="523.7000007629395" style="font-size: 16px; font-family: danielbd;"><tspan x="1425.62890625">DDNS up to date</tspan></text><path d="M1682.4,536.2C1535.6,522.1 1414.1,550.3 1329.4,536.2" stroke="#000000" fill="none" style="stroke-width: 2; marker-end: url(&quot;#markerArrowOpen&quot;);"></path></g><g class="signal"><text x="1076.453125" y="564.7000007629395" style="font-size: 16px; font-family: danielbd;"><tspan x="1075.453125">DDNS up to date</tspan></text><path d="M1329.4,577.2C1246.0,591.1 1246.0,563.3 982.0,577.2" stroke="#000000" fill="none" style="stroke-width: 2; marker-end: url(&quot;#markerArrowOpen&quot;);"></path></g><g class="note"><path d="M1349.4140625,597.2000007629395C1427.9,591.7 1439.5,602.7 1487.8,597.2C1486.5,612.7 1489.0,608.3 1487.8,628.2C1371.6,633.7 1429.9,622.7 1349.4,628.2C1348.2,620.8 1350.7,604.6 1349.4,597.2" stroke="#000000" fill="#ffffff" style="stroke-width: 2;"></path><text x="1354.4140625" y="616.2000007629395" style="font-size: 16px; font-family: danielbd;"><tspan x="1354.4140625">--force--update</tspan></text></g><g class="signal"><text x="1592.765625" y="653.2000007629395" style="font-size: 16px; font-family: danielbd;"><tspan x="1592.765625"></tspan></text><path d="M1329.4,648.2C1474.5,627.1 1458.0,669.3 1856.1,648.2" stroke="#000000" fill="none" style="stroke-width: 2; stroke-dasharray: 6, 2; marker-end: url(&quot;#markerArrowOpen&quot;);"></path></g><g class="note"><path d="M1820.78515625,668.2000007629395C1861.9,671.0 1864.4,665.4 1891.4,668.2C1890.2,673.3 1892.7,691.0 1891.4,700.2C1876.9,703.0 1844.6,697.4 1820.8,700.2C1822.1,688.6 1819.5,687.8 1820.8,668.2" stroke="#000000" fill="#ffffff" style="stroke-width: 2;"></path><text x="1825.78515625" y="687.2000007629395" style="font-size: 16px; font-family: danielbd;"><tspan x="1825.78515625">logger()</tspan></text></g><g class="signal"><text x="1592.765625" y="725.2000007629395" style="font-size: 16px; font-family: danielbd;"><tspan x="1592.765625"></tspan></text><path d="M1329.4,720.2C1413.7,699.1 1455.8,741.3 1856.1,720.2" stroke="#000000" fill="none" style="stroke-width: 2; marker-end: url(&quot;#markerArrowOpen&quot;);"></path></g><g class="signal"><text x="1945.08984375" y="745.2000007629395" style="font-size: 16px; font-family: danielbd;"><tspan x="1945.08984375"></tspan></text><path d="M1856.1,740.2C1884.6,747.3 1980.3,733.1 2034.1,740.2" stroke="#000000" fill="none" style="stroke-width: 2; marker-end: url(&quot;#markerArrowOpen&quot;);"></path></g><g class="note"><path d="M1998.73046875,760.2000007629395C2013.0,763.0 2020.3,757.4 2069.4,760.2C2070.7,779.8 2068.1,769.0 2069.4,792.2C2025.2,795.0 2020.5,789.4 1998.7,792.2C2000.0,772.2 1997.5,766.1 1998.7,760.2" stroke="#000000" fill="#ffffff" style="stroke-width: 2;"></path><text x="2003.73046875" y="779.2000007629395" style="font-size: 16px; font-family: danielbd;"><tspan x="2003.73046875">logger()</tspan></text></g><g class="signal"><text x="1681.73828125" y="817.2000007629395" style="font-size: 16px; font-family: danielbd;"><tspan x="1681.73828125"></tspan></text><path d="M2034.1,812.2C1520.2,784.0 1760.7,840.4 1329.4,812.2" stroke="#000000" fill="none" style="stroke-width: 2; marker-end: url(&quot;#markerArrowOpen&quot;);"></path></g><g class="signal"><text x="1901.62109375" y="837.2000007629395" style="font-size: 16px; font-family: danielbd;"><tspan x="1901.62109375"></tspan></text><path d="M1329.4,832.2C1957.4,878.0 2290.7,786.4 2473.8,832.2" stroke="#000000" fill="none" style="stroke-width: 2; marker-end: url(&quot;#markerArrowOpen&quot;);"></path></g><g class="note"><path d="M2438.49609375,852.2000007629395C2456.4,855.0 2497.9,849.4 2509.2,852.2C2507.9,866.5 2510.4,859.9 2509.2,884.2C2455.5,881.4 2471.3,887.0 2438.5,884.2C2439.8,859.2 2437.2,871.2 2438.5,852.2" stroke="#000000" fill="#ffffff" style="stroke-width: 2;"></path><text x="2443.49609375" y="871.2000007629395" style="font-size: 16px; font-family: danielbd;"><tspan x="2443.49609375">logger()</tspan></text></g><g class="signal"><text x="1901.62109375" y="909.2000007629395" style="font-size: 16px; font-family: danielbd;"><tspan x="1901.62109375"></tspan></text><path d="M2473.8,904.2C2220.8,858.4 1512.5,950.0 1329.4,904.2" stroke="#000000" fill="none" style="stroke-width: 2; marker-end: url(&quot;#markerArrowOpen&quot;);"></path></g><g class="note"><path d="M2138.578125,924.2000007629395C2378.2,911.6 2214.2,936.8 2453.8,924.2C2452.5,935.9 2455.1,951.1 2453.8,956.2C2240.3,968.8 2189.0,943.6 2138.6,956.2C2137.3,949.5 2139.9,940.0 2138.6,924.2" stroke="#000000" fill="#ffffff" style="stroke-width: 2;"></path><text x="2144.578125" y="943.2000007629395" style="font-size: 16px; font-family: danielbd;"><tspan x="2143.578125">extract() - API error code, message</tspan></text></g><g class="signal"><text x="997.79296875" y="974.6000003814697" style="font-size: 16px; font-family: danielbd;"><tspan x="997.79296875">- error</tspan><tspan dy="1.2em" x="997.79296875">- DDNS up to date(cache outdated)</tspan></text><path d="M1329.4,1015.4C1169.3,1029.3 1200.7,1001.5 982.0,1015.4" stroke="#000000" fill="none" style="stroke-width: 2; marker-end: url(&quot;#markerArrowBlock&quot;);"></path></g><g class="note"><path d="M1349.4140625,1035.400001525879C1382.6,1029.9 1371.6,1040.9 1487.8,1035.4C1489.0,1052.7 1486.5,1045.8 1487.8,1066.4C1401.9,1071.9 1454.6,1060.9 1349.4,1066.4C1348.2,1059.0 1350.7,1049.9 1349.4,1035.4" stroke="#000000" fill="#ffffff" style="stroke-width: 2;"></path><text x="1354.4140625" y="1054.400001525879" style="font-size: 16px; font-family: danielbd;"><tspan x="1354.4140625">--force--update</tspan></text></g><g class="signal"><text x="1993.111328125" y="1091.400001525879" style="font-size: 16px; font-family: danielbd;"><tspan x="1993.111328125"></tspan></text><path d="M1329.4,1086.4C1856.6,1033.3 1648.0,1139.5 2656.8,1086.4" stroke="#000000" fill="none" style="stroke-width: 2; stroke-dasharray: 6, 2; marker-end: url(&quot;#markerArrowOpen&quot;);"></path></g><g class="note"><path d="M2621.4765625,1106.400001525879C2675.2,1109.2 2680.8,1103.6 2692.1,1106.4C2690.9,1124.9 2693.4,1111.5 2692.1,1138.4C2639.7,1141.2 2661.3,1135.6 2621.5,1138.4C2620.2,1111.5 2622.8,1120.2 2621.5,1106.4" stroke="#000000" fill="#ffffff" style="stroke-width: 2;"></path><text x="2626.4765625" y="1125.400001525879" style="font-size: 16px; font-family: danielbd;"><tspan x="2626.4765625">logger()</tspan></text></g><g class="signal"><text x="1993.111328125" y="1163.400001525879" style="font-size: 16px; font-family: danielbd;"><tspan x="1993.111328125"></tspan></text><path d="M1329.4,1158.4C2079.4,1105.3 2444.4,1211.5 2656.8,1158.4" stroke="#000000" fill="none" style="stroke-width: 2; marker-end: url(&quot;#markerArrowOpen&quot;);"></path></g><g class="note"><path d="M1998.73046875,1178.400001525879C2052.4,1175.6 2058.1,1181.2 2069.4,1178.4C2068.1,1191.1 2070.7,1183.5 2069.4,1210.4C2010.0,1213.2 2058.1,1207.6 1998.7,1210.4C2000.0,1190.3 1997.5,1183.5 1998.7,1178.4" stroke="#000000" fill="#ffffff" style="stroke-width: 2;"></path><text x="2003.73046875" y="1197.400001525879" style="font-size: 16px; font-family: danielbd;"><tspan x="2003.73046875">logger()</tspan></text></g><g class="signal"><text x="2345.435546875" y="1235.400001525879" style="font-size: 16px; font-family: danielbd;"><tspan x="2345.435546875"></tspan></text><path d="M2656.8,1230.4C2557.2,1255.3 2237.2,1205.5 2034.1,1230.4" stroke="#000000" fill="none" style="stroke-width: 2; marker-end: url(&quot;#markerArrowOpen&quot;);"></path></g><g class="signal"><text x="1681.73828125" y="1255.400001525879" style="font-size: 16px; font-family: danielbd;"><tspan x="1681.73828125"></tspan></text><path d="M2034.1,1250.4C1533.2,1222.2 1772.2,1278.6 1329.4,1250.4" stroke="#000000" fill="none" style="stroke-width: 2; marker-end: url(&quot;#markerArrowOpen&quot;);"></path></g><g class="signal"><text x="1901.62109375" y="1275.400001525879" style="font-size: 16px; font-family: danielbd;"><tspan x="1901.62109375"></tspan></text><path d="M1329.4,1270.4C2290.7,1316.2 1512.5,1224.6 2473.8,1270.4" stroke="#000000" fill="none" style="stroke-width: 2; marker-end: url(&quot;#markerArrowOpen&quot;);"></path></g><g class="signal"><text x="1901.62109375" y="1295.400001525879" style="font-size: 16px; font-family: danielbd;"><tspan x="1901.62109375"></tspan></text><path d="M2473.8,1290.4C2127.2,1244.6 2119.3,1336.2 1329.4,1290.4" stroke="#000000" fill="none" style="stroke-width: 2; marker-end: url(&quot;#markerArrowOpen&quot;);"></path></g><g class="note"><path d="M2054.0625,1310.400001525879C2343.7,1294.4 2138.2,1326.4 2453.8,1310.4C2455.1,1332.5 2452.5,1326.2 2453.8,1342.4C2314.4,1326.4 2357.9,1358.4 2054.1,1342.4C2055.3,1315.5 2052.8,1328.8 2054.1,1310.4" stroke="#000000" fill="#ffffff" style="stroke-width: 2;"></path><text x="2060.0625" y="1329.400001525879" style="font-size: 16px; font-family: danielbd;"><tspan x="2059.0625">extract_api_err - API error code, message</tspan></text></g><g class="signal"><text x="1131.11328125" y="1372.400001525879" style="font-size: 16px; font-family: danielbd;"><tspan x="1130.11328125">error</tspan></text><path d="M1329.4,1378.4C1121.8,1364.5 1125.2,1392.3 982.0,1378.4" stroke="#000000" fill="none" style="stroke-width: 2; marker-end: url(&quot;#markerArrowBlock&quot;);"></path></g><g class="note"><path d="M972.0234375,1398.400001525879C1136.5,1413.1 1188.2,1383.7 1339.4,1398.4C1340.5,1410.4 1338.3,1403.4 1339.4,1425.4C1190.2,1440.1 1060.2,1410.7 972.0,1425.4C970.9,1402.7 973.1,1416.0 972.0,1398.4" stroke="#000000" fill="#ffffff" style="stroke-width: 2;"></path><text x="977.0234375" y="1417.400001525879" style="font-size: 16px; font-family: danielbd;"><tspan x="977.0234375">⮬ next DDNS record ⮝</tspan></text></g><g class="signal"><text x="1155.71875" y="1450.400001525879" style="font-size: 16px; font-family: danielbd;"><tspan x="1155.71875"></tspan></text><path d="M1329.4,1445.4C1273.8,1459.3 1137.0,1431.5 982.0,1445.4" stroke="#000000" fill="none" style="stroke-width: 2; marker-end: url(&quot;#markerArrowBlock&quot;);"></path></g><g class="signal"><text x="588.9609375" y="1475.900001525879" style="font-size: 16px; font-family: danielbd;"><tspan x="588.9609375">✦ no more DDNS records ✦</tspan></text><path d="M982.0,1482.4C649.5,1503.7 841.3,1461.1 449.6,1482.4" stroke="#000000" fill="none" style="stroke-width: 2; marker-end: url(&quot;#markerArrowBlock&quot;);"></path></g></svg>