<?xml version="1.0" encoding="utf-8" standalone="no"?><!DOCTYPE svg PUBLIC "-//W3C//DTD SVG 20010904//EN" "http://www.w3.org/TR/2001/REC-SVG-20010904/DTD/svg10.dtd"><svg xmlns="http://www.w3.org/2000/svg" width="2826" height="1566" xmlns:xlink="http://www.w3.org/1999/xlink"><source><![CDATA[main -->> parse_command: options
parse_command -->> show_help: --help, -h
show_help --> Exit:
parse_command ->> validate_config:
note left of validate_config: extract_config() - DDNS fields
validate_config -> Exit: - invalid configration\n- no DDNS records
validate_config ->> proc_ddns_records:
proc_ddns_records ->> dp_sync_ddns:
note right of proc_ddns_records: get_ddns_field() - DDNS fields
dp_sync_ddns ->> ip_addr_show:
ip_addr_show -> proc_ddns_records: error
ip_addr_show ->> ip_nslookup:
ip_nslookup -> proc_ddns_records: error
ip_nslookup ->> dp_sync_ddns: DDNS up to date
dp_sync_ddns ->> proc_ddns_records: DDNS up to date
note right of dp_sync_ddns: --force--update
dp_sync_ddns -->> dp_ddns_query:
note over dp_ddns_query: logger()
dp_sync_ddns ->> dp_ddns_query:
dp_ddns_query ->> dp_api_req:
note over dp_api_req: logger() 
dp_api_req ->> dp_sync_ddns:
dp_sync_ddns ->> dp_api_err:
note over dp_api_err: logger()
dp_api_err ->> dp_sync_ddns:
note left of dp_api_err: extract() - API error code, message
dp_sync_ddns -> proc_ddns_records: - error\n - DDNS up to date(cache outdated)
note right of dp_sync_ddns: --force--update
dp_sync_ddns -->> dp_ddns_update:
note over dp_ddns_update: logger()
dp_sync_ddns ->> dp_ddns_update:
note over dp_api_req: logger()
dp_ddns_update ->> dp_api_req:
dp_api_req ->> dp_sync_ddns:
dp_sync_ddns ->> dp_api_err:
dp_api_err ->> dp_sync_ddns:
note left of dp_api_err: extract_api_err - API error code, message
dp_sync_ddns -> proc_ddns_records:  error
note over dp_sync_ddns,proc_ddns_records: ⮬ next DDNS record ⮝
dp_sync_ddns -> proc_ddns_records:
proc_ddns_records -> Exit: ✦ no more DDNS records ✦]]></source><desc></desc><defs><marker viewBox="0 0 5 5" markerWidth="5" markerHeight="5" orient="auto" refX="5" refY="2.5" id="markerArrowBlock"><path d="M 0 0 L 5 2.5 L 0 5 z"></path></marker><marker viewBox="0 0 9.6 16" markerWidth="4" markerHeight="16" orient="auto" refX="9.6" refY="8" id="markerArrowOpen"><path d="M 9.6,8 1.92,16 0,13.7 5.76,8 0,2.286 1.92,0 9.6,8 z"></path></marker></defs><g class="title"></g><g class="actor"><path d="M10,20C23.9,17.7 30.8,22.3 67.8,20.0C69.5,30.0 66.2,47.4 67.8,61.7C49.4,64.0 48.3,59.4 10.0,61.7C8.3,51.7 11.7,55.0 10.0,20.0" stroke="#000000" fill="#ffffff" style="stroke-width: 2;"></path><text x="20" y="45.42857265472412" style="font-size: 16px; font-family: Daniel Black;"><tspan x="20">main</tspan></text></g><g class="actor"><path d="M10,1504.6857452392578C54.0,1507.0 30.2,1502.4 67.8,1504.7C66.2,1536.2 69.5,1511.4 67.8,1546.4C22.9,1548.7 23.9,1544.1 10.0,1546.4C11.7,1524.8 8.3,1532.8 10.0,1504.7" stroke="#000000" fill="#ffffff" style="stroke-width: 2;"></path><text x="20" y="1530.114317893982" style="font-size: 16px; font-family: Daniel Black;"><tspan x="20">main</tspan></text></g><path d="M38.9,61.7C-18.8,735.1 96.6,1158.4 38.9,1504.7" stroke="#000000" fill="none" style="stroke-width: 2;"></path><g class="actor"><path d="M87.83036041259766,20C144.1,13.2 165.5,26.8 257.0,20.0C255.4,30.0 258.7,26.7 257.0,61.7C114.9,68.5 179.1,54.9 87.8,61.7C89.5,46.9 86.2,30.0 87.8,20.0" stroke="#000000" fill="#ffffff" style="stroke-width: 2;"></path><text x="97.83036041259766" y="43.71428680419922" style="font-size: 16px; font-family: Daniel Black;"><tspan x="97.83036041259766">parse_command</tspan></text></g><g class="actor"><path d="M87.83036041259766,1504.6857452392578C230.0,1511.5 193.1,1497.9 257.0,1504.7C255.4,1514.7 258.7,1527.0 257.0,1546.4C219.7,1553.2 203.8,1539.6 87.8,1546.4C89.5,1528.6 86.2,1539.7 87.8,1504.7" stroke="#000000" fill="#ffffff" style="stroke-width: 2;"></path><text x="97.83036041259766" y="1528.400032043457" style="font-size: 16px; font-family: Daniel Black;"><tspan x="97.83036041259766">parse_command</tspan></text></g><path d="M172.4,61.7C114.7,1114.9 230.2,726.4 172.4,1504.7" stroke="#000000" fill="none" style="stroke-width: 2;"></path><g class="actor"><path d="M277.0346145629883,20C297.2,15.2 378.3,24.8 397.5,20.0C395.9,30.0 399.2,33.1 397.5,61.7C353.4,56.9 322.8,66.5 277.0,61.7C275.4,46.7 278.7,28.2 277.0,20.0" stroke="#000000" fill="#ffffff" style="stroke-width: 2;"></path><text x="287.0346145629883" y="43.71428680419922" style="font-size: 16px; font-family: Daniel Black;"><tspan x="287.0346145629883">show_help</tspan></text></g><g class="actor"><path d="M277.0346145629883,1504.6857452392578C296.3,1509.5 306.0,1499.9 397.5,1504.7C395.9,1512.0 399.2,1535.9 397.5,1546.4C352.5,1551.2 368.6,1541.6 277.0,1546.4C278.7,1521.5 275.4,1539.7 277.0,1504.7" stroke="#000000" fill="#ffffff" style="stroke-width: 2;"></path><text x="287.0346145629883" y="1528.400032043457" style="font-size: 16px; font-family: Daniel Black;"><tspan x="287.0346145629883">show_help</tspan></text></g><path d="M337.3,61.7C279.6,1158.4 395.0,1273.8 337.3,1504.7" stroke="#000000" fill="none" style="stroke-width: 2;"></path><g class="actor"><path d="M417.5413131713867,20C462.8,17.6 467.5,22.4 477.0,20.0C475.4,31.9 478.7,52.5 477.0,61.7C431.8,59.3 443.2,64.1 417.5,61.7C419.2,42.5 415.9,51.5 417.5,20.0" stroke="#000000" fill="#ffffff" style="stroke-width: 2;"></path><text x="427.5413131713867" y="45.42857265472412" style="font-size: 16px; font-family: Daniel Black;"><tspan x="427.5413131713867">Exit</tspan></text></g><g class="actor"><path d="M417.5413131713867,1504.6857452392578C451.5,1507.1 467.5,1502.3 477.0,1504.7C475.4,1539.7 478.7,1511.4 477.0,1546.4C448.1,1548.8 427.1,1544.0 417.5,1546.4C419.2,1531.4 415.9,1521.8 417.5,1504.7" stroke="#000000" fill="#ffffff" style="stroke-width: 2;"></path><text x="427.5413131713867" y="1530.114317893982" style="font-size: 16px; font-family: Daniel Black;"><tspan x="427.5413131713867">Exit</tspan></text></g><path d="M447.3,61.7C389.6,1158.4 505.0,408.0 447.3,1504.7" stroke="#000000" fill="none" style="stroke-width: 2;"></path><g class="actor"><path d="M700.6970272064209,20C789.2,13.8 802.9,26.2 855.4,20.0C857.0,36.1 853.7,34.8 855.4,61.7C740.9,67.9 830.6,55.5 700.7,61.7C699.0,51.7 702.4,30.0 700.7,20.0" stroke="#000000" fill="#ffffff" style="stroke-width: 2;"></path><text x="710.6970272064209" y="43.71428680419922" style="font-size: 16px; font-family: Daniel Black;"><tspan x="710.6970272064209">validate_config</tspan></text></g><g class="actor"><path d="M700.6970272064209,1504.6857452392578C825.4,1498.5 783.5,1510.9 855.4,1504.7C853.7,1513.1 857.0,1524.8 855.4,1546.4C725.4,1540.2 830.6,1552.6 700.7,1546.4C702.4,1514.7 699.0,1536.4 700.7,1504.7" stroke="#000000" fill="#ffffff" style="stroke-width: 2;"></path><text x="710.6970272064209" y="1528.400032043457" style="font-size: 16px; font-family: Daniel Black;"><tspan x="710.6970272064209">validate_config</tspan></text></g><path d="M778.0,61.7C835.8,1273.8 720.3,292.6 778.0,1504.7" stroke="#000000" fill="none" style="stroke-width: 2;"></path><g class="actor"><path d="M875.3756008148193,20C954.6,28.5 955.2,11.5 1086.6,20.0C1085.0,30.8 1088.3,34.5 1086.6,61.7C1052.8,70.2 960.1,53.3 875.4,61.7C877.0,35.5 873.7,30.0 875.4,20.0" stroke="#000000" fill="#ffffff" style="stroke-width: 2;"></path><text x="885.3756008148193" y="43.71428680419922" style="font-size: 16px; font-family: Daniel Black;"><tspan x="885.3756008148193">proc_ddns_records</tspan></text></g><g class="actor"><path d="M875.3756008148193,1504.6857452392578C909.2,1513.1 1037.6,1496.2 1086.6,1504.7C1085.0,1520.2 1088.3,1516.3 1086.6,1546.4C940.2,1537.9 988.7,1554.9 875.4,1546.4C873.7,1522.5 877.0,1516.9 875.4,1504.7" stroke="#000000" fill="#ffffff" style="stroke-width: 2;"></path><text x="885.3756008148193" y="1528.400032043457" style="font-size: 16px; font-family: Daniel Black;"><tspan x="885.3756008148193">proc_ddns_records</tspan></text></g><path d="M981.0,61.7C1038.7,1273.8 923.3,450.8 981.0,1504.7" stroke="#000000" fill="none" style="stroke-width: 2;"></path><g class="actor"><path d="M1247.335988998413,20C1273.4,26.5 1384.1,13.5 1410.2,20.0C1411.8,26.7 1408.5,37.5 1410.2,61.7C1286.4,55.2 1284.9,68.2 1247.3,61.7C1249.0,51.4 1245.7,51.7 1247.3,20.0" stroke="#000000" fill="#ffffff" style="stroke-width: 2;"></path><text x="1257.335988998413" y="43.71428680419922" style="font-size: 16px; font-family: Daniel Black;"><tspan x="1257.335988998413">dp_sync_ddns</tspan></text></g><g class="actor"><path d="M1247.335988998413,1504.6857452392578C1339.7,1511.2 1327.2,1498.2 1410.2,1504.7C1408.5,1536.4 1411.8,1539.7 1410.2,1546.4C1314.2,1539.9 1279.9,1552.9 1247.3,1546.4C1245.7,1513.0 1249.0,1536.8 1247.3,1504.7" stroke="#000000" fill="#ffffff" style="stroke-width: 2;"></path><text x="1257.335988998413" y="1528.400032043457" style="font-size: 16px; font-family: Daniel Black;"><tspan x="1257.335988998413">dp_sync_ddns</tspan></text></g><path d="M1328.7,61.7C1271.0,1273.8 1386.5,292.6 1328.7,1504.7" stroke="#000000" fill="none" style="stroke-width: 2;"></path><g class="actor"><path d="M1430.1507320404053,20C1475.2,26.7 1456.8,13.3 1596.9,20.0C1598.6,30.0 1595.3,36.7 1596.9,61.7C1470.2,68.4 1456.8,55.0 1430.2,61.7C1431.8,26.7 1428.5,30.0 1430.2,20.0" stroke="#000000" fill="#ffffff" style="stroke-width: 2;"></path><text x="1440.1507320404053" y="43.71428680419922" style="font-size: 16px; font-family: Daniel Black;"><tspan x="1440.1507320404053">ip_addr_show</tspan></text></g><g class="actor"><path d="M1430.1507320404053,1504.6857452392578C1537.1,1498.0 1570.3,1511.4 1596.9,1504.7C1595.3,1528.6 1598.6,1532.0 1596.9,1546.4C1475.2,1539.7 1570.3,1553.1 1430.2,1546.4C1428.5,1532.8 1431.8,1513.8 1430.2,1504.7" stroke="#000000" fill="#ffffff" style="stroke-width: 2;"></path><text x="1440.1507320404053" y="1528.400032043457" style="font-size: 16px; font-family: Daniel Black;"><tspan x="1440.1507320404053">ip_addr_show</tspan></text></g><path d="M1513.6,61.7C1455.8,408.0 1571.3,1158.4 1513.6,1504.7" stroke="#000000" fill="none" style="stroke-width: 2;"></path><g class="actor"><path d="M1616.9498500823975,20C1691.0,25.2 1691.0,14.8 1747.0,20.0C1745.3,29.5 1748.6,55.0 1747.0,61.7C1656.2,56.5 1682.7,66.9 1616.9,61.7C1615.3,31.5 1618.6,44.5 1616.9,20.0" stroke="#000000" fill="#ffffff" style="stroke-width: 2;"></path><text x="1626.9498500823975" y="43.71428680419922" style="font-size: 16px; font-family: Daniel Black;"><tspan x="1626.9498500823975">ip_nslookup</tspan></text></g><g class="actor"><path d="M1616.9498500823975,1504.6857452392578C1683.8,1499.5 1672.2,1509.9 1747.0,1504.7C1748.6,1514.7 1745.3,1511.4 1747.0,1546.4C1660.9,1541.2 1648.2,1551.6 1616.9,1546.4C1618.6,1536.4 1615.3,1529.1 1616.9,1504.7" stroke="#000000" fill="#ffffff" style="stroke-width: 2;"></path><text x="1626.9498500823975" y="1528.400032043457" style="font-size: 16px; font-family: Daniel Black;"><tspan x="1626.9498500823975">ip_nslookup</tspan></text></g><path d="M1682.0,61.7C1624.2,1047.7 1739.7,883.0 1682.0,1504.7" stroke="#000000" fill="none" style="stroke-width: 2;"></path><g class="actor"><path d="M1766.956548690796,20C1915.8,12.9 1891.2,27.1 1944.1,20.0C1945.8,41.0 1942.5,45.6 1944.1,61.7C1812.0,54.6 1915.8,68.8 1767.0,61.7C1765.3,54.9 1768.6,30.9 1767.0,20.0" stroke="#000000" fill="#ffffff" style="stroke-width: 2;"></path><text x="1776.956548690796" y="43.71428680419922" style="font-size: 16px; font-family: Daniel Black;"><tspan x="1776.956548690796">dp_ddns_query</tspan></text></g><g class="actor"><path d="M1766.956548690796,1504.6857452392578C1795.3,1497.6 1915.8,1511.8 1944.1,1504.7C1945.8,1525.2 1942.5,1536.4 1944.1,1546.4C1795.3,1539.3 1827.8,1553.5 1767.0,1546.4C1768.6,1513.7 1765.3,1535.4 1767.0,1504.7" stroke="#000000" fill="#ffffff" style="stroke-width: 2;"></path><text x="1776.956548690796" y="1528.400032043457" style="font-size: 16px; font-family: Daniel Black;"><tspan x="1776.956548690796">dp_ddns_query</tspan></text></g><path d="M1855.6,61.7C1913.3,498.2 1797.8,1273.8 1855.6,1504.7" stroke="#000000" fill="none" style="stroke-width: 2;"></path><g class="actor"><path d="M1964.1485195159912,20C1997.6,14.4 2052.5,25.6 2103.5,20.0C2101.9,55.0 2105.2,28.5 2103.5,61.7C1997.6,56.1 2035.8,67.3 1964.1,61.7C1965.8,55.0 1962.5,28.5 1964.1,20.0" stroke="#000000" fill="#ffffff" style="stroke-width: 2;"></path><text x="1974.1485195159912" y="43.71428680419922" style="font-size: 16px; font-family: Daniel Black;"><tspan x="1974.1485195159912">dp_api_req</tspan></text></g><g class="actor"><path d="M1964.1485195159912,1504.6857452392578C2081.2,1499.1 2070.1,1510.3 2103.5,1504.7C2105.2,1539.7 2101.9,1511.4 2103.5,1546.4C2038.1,1540.8 2001.1,1552.0 1964.1,1546.4C1965.8,1511.4 1962.5,1537.6 1964.1,1504.7" stroke="#000000" fill="#ffffff" style="stroke-width: 2;"></path><text x="1974.1485195159912" y="1528.400032043457" style="font-size: 16px; font-family: Daniel Black;"><tspan x="1974.1485195159912">dp_api_req</tspan></text></g><path d="M2033.8,61.7C1976.1,621.8 2091.6,932.5 2033.8,1504.7" stroke="#000000" fill="none" style="stroke-width: 2;"></path><g class="actor"><path d="M2405.0748805999756,20C2427.4,14.4 2513.3,25.6 2544.4,20.0C2542.8,26.7 2546.1,55.0 2544.4,61.7C2427.4,56.1 2446.7,67.3 2405.1,61.7C2406.7,40.7 2403.4,49.2 2405.1,20.0" stroke="#000000" fill="#ffffff" style="stroke-width: 2;"></path><text x="2415.0748805999756" y="43.71428680419922" style="font-size: 16px; font-family: Daniel Black;"><tspan x="2415.0748805999756">dp_api_err</tspan></text></g><g class="actor"><path d="M2405.0748805999756,1504.6857452392578C2484.4,1510.3 2493.0,1499.1 2544.4,1504.7C2546.1,1539.7 2542.8,1511.4 2544.4,1546.4C2428.3,1540.8 2472.1,1552.0 2405.1,1546.4C2406.7,1512.0 2403.4,1522.6 2405.1,1504.7" stroke="#000000" fill="#ffffff" style="stroke-width: 2;"></path><text x="2415.0748805999756" y="1528.400032043457" style="font-size: 16px; font-family: Daniel Black;"><tspan x="2415.0748805999756">dp_api_err</tspan></text></g><path d="M2474.8,61.7C2417.0,994.0 2532.5,1109.2 2474.8,1504.7" stroke="#000000" fill="none" style="stroke-width: 2;"></path><g class="actor"><path d="M2564.448766708374,20C2721.6,27.5 2706.6,12.5 2751.5,20.0C2749.8,55.0 2753.2,51.7 2751.5,61.7C2721.6,69.2 2620.6,54.2 2564.4,61.7C2562.8,55.0 2566.1,51.7 2564.4,20.0" stroke="#000000" fill="#ffffff" style="stroke-width: 2;"></path><text x="2574.448766708374" y="43.71428680419922" style="font-size: 16px; font-family: Daniel Black;"><tspan x="2574.448766708374">dp_ddns_update</tspan></text></g><g class="actor"><path d="M2564.448766708374,1504.6857452392578C2635.7,1512.2 2651.0,1497.2 2751.5,1504.7C2753.2,1522.0 2749.8,1535.0 2751.5,1546.4C2609.3,1538.9 2594.4,1553.9 2564.4,1546.4C2566.1,1525.6 2562.8,1538.2 2564.4,1504.7" stroke="#000000" fill="#ffffff" style="stroke-width: 2;"></path><text x="2574.448766708374" y="1528.400032043457" style="font-size: 16px; font-family: Daniel Black;"><tspan x="2574.448766708374">dp_ddns_update</tspan></text></g><path d="M2658.0,61.7C2715.7,292.6 2600.2,671.6 2658.0,1504.7" stroke="#000000" fill="none" style="stroke-width: 2;"></path><g class="signal"><text x="75.39537239074707" y="89.00000095367432" style="font-size: 16px; font-family: Daniel Black;"><tspan x="75.39537239074707">options</tspan></text><path d="M38.9,102.3C85.8,96.9 123.2,107.6 172.4,102.3" stroke="#000000" fill="none" style="stroke-width: 2; stroke-dasharray: 6, 2; marker-end: url(&quot;#markerArrowOpen&quot;);"></path></g><g class="signal"><text x="217.22015762329102" y="130.14286041259766" style="font-size: 16px; font-family: Daniel Black;"><tspan x="217.22015762329102">--help, -h</tspan></text><path d="M172.4,144.0C214.7,137.4 255.2,150.6 337.3,144.0" stroke="#000000" fill="none" style="stroke-width: 2; stroke-dasharray: 6, 2; marker-end: url(&quot;#markerArrowOpen&quot;);"></path></g><g class="signal"><text x="392.2888021469116" y="169.00000381469727" style="font-size: 16px; font-family: Daniel Black;"><tspan x="392.2888021469116"></tspan></text><path d="M337.3,164.0C429.7,168.4 386.2,159.6 447.3,164.0" stroke="#000000" fill="none" style="stroke-width: 2; stroke-dasharray: 6, 2; marker-end: url(&quot;#markerArrowBlock&quot;);"></path></g><g class="signal"><text x="475.23440074920654" y="189.00000381469727" style="font-size: 16px; font-family: Daniel Black;"><tspan x="475.23440074920654"></tspan></text><path d="M172.4,184.0C508.4,208.2 632.7,159.8 778.0,184.0" stroke="#000000" fill="none" style="stroke-width: 2; marker-end: url(&quot;#markerArrowOpen&quot;);"></path></g><g class="note"><path d="M467.28964042663574,204.00000381469727C711.5,215.6 679.3,192.4 758.0,204.0C756.8,230.6 759.3,218.6 758.0,235.7C688.3,224.1 662.6,247.3 467.3,235.7C468.6,211.6 466.0,227.9 467.3,204.0" stroke="#000000" fill="#ffffff" style="stroke-width: 2;"></path><text x="473.4324976205826" y="222.71429061889648" style="font-size: 16px; font-family: Daniel Black;"><tspan x="472.28964042663574">extract_config() - DDNS fields</tspan></text></g><g class="signal"><text x="525.8766994476318" y="256.25714683532715" style="font-size: 16px; font-family: Daniel Black;"><tspan x="525.8766994476318">- invalid configration</tspan><tspan dy="1.2em" x="525.8766994476318">- no DDNS records</tspan></text><path d="M778.0,292.1C505.1,278.8 622.4,305.3 447.3,292.1" stroke="#000000" fill="none" style="stroke-width: 2; marker-end: url(&quot;#markerArrowBlock&quot;);"></path></g><g class="signal"><text x="879.5209712982178" y="317.0571517944336" style="font-size: 16px; font-family: Daniel Black;"><tspan x="879.5209712982178"></tspan></text><path d="M778.0,312.1C813.3,320.2 826.7,303.9 981.0,312.1" stroke="#000000" fill="none" style="stroke-width: 2; marker-end: url(&quot;#markerArrowOpen&quot;);"></path></g><g class="signal"><text x="1154.8744945526123" y="337.0571517944336" style="font-size: 16px; font-family: Daniel Black;"><tspan x="1154.8744945526123"></tspan></text><path d="M981.0,332.1C1245.3,346.0 1193.0,318.1 1328.7,332.1" stroke="#000000" fill="none" style="stroke-width: 2; marker-end: url(&quot;#markerArrowOpen&quot;);"></path></g><g class="note"><path d="M1001.0056285858154,352.0571517944336C1248.0,364.4 1126.2,339.7 1308.7,352.1C1307.5,376.0 1310.0,376.2 1308.7,383.8C1189.6,396.1 1165.5,371.5 1001.0,383.8C999.7,370.4 1002.3,364.9 1001.0,352.1" stroke="#000000" fill="#ffffff" style="stroke-width: 2;"></path><text x="1010.5770573616028" y="370.7714385986328" style="font-size: 16px; font-family: Daniel Black;"><tspan x="1006.0056285858154">get_ddns_field() - DDNS fields</tspan></text></g><g class="signal"><text x="1421.1468257904053" y="408.7714385986328" style="font-size: 16px; font-family: Daniel Black;"><tspan x="1421.1468257904053"></tspan></text><path d="M1328.7,403.8C1373.1,396.4 1398.6,411.2 1513.6,403.8" stroke="#000000" fill="none" style="stroke-width: 2; marker-end: url(&quot;#markerArrowOpen&quot;);"></path></g><g class="signal"><text x="1223.0296331644058" y="433.3428678512573" style="font-size: 16px; font-family: Daniel Black;"><tspan x="1221.886775970459">error</tspan></text><path d="M1513.6,439.8C1272.2,418.5 1076.0,461.1 981.0,439.8" stroke="#000000" fill="none" style="stroke-width: 2; marker-end: url(&quot;#markerArrowBlock&quot;);"></path></g><g class="signal"><text x="1597.751745223999" y="464.7714385986328" style="font-size: 16px; font-family: Daniel Black;"><tspan x="1597.751745223999"></tspan></text><path d="M1513.6,459.8C1554.0,466.5 1611.5,453.0 1682.0,459.8" stroke="#000000" fill="none" style="stroke-width: 2; marker-end: url(&quot;#markerArrowOpen&quot;);"></path></g><g class="signal"><text x="1307.2310873270035" y="489.3428678512573" style="font-size: 16px; font-family: Daniel Black;"><tspan x="1306.0882301330566">error</tspan></text><path d="M1682.0,495.8C1298.9,467.7 1242.5,523.8 981.0,495.8" stroke="#000000" fill="none" style="stroke-width: 2; marker-end: url(&quot;#markerArrowBlock&quot;);"></path></g><g class="signal"><text x="1425.649057984352" y="523.6285820007324" style="font-size: 16px; font-family: Daniel Black;"><tspan x="1424.5062007904053">DDNS up to date</tspan></text><path d="M1682.0,537.5C1521.7,551.6 1403.3,523.4 1328.7,537.5" stroke="#000000" fill="none" style="stroke-width: 2; marker-end: url(&quot;#markerArrowOpen&quot;);"></path></g><g class="signal"><text x="1075.1752725839615" y="565.3428688049316" style="font-size: 16px; font-family: Daniel Black;"><tspan x="1074.0324153900146">DDNS up to date</tspan></text><path d="M1328.7,579.2C1177.4,593.1 1273.1,565.3 981.0,579.2" stroke="#000000" fill="none" style="stroke-width: 2; marker-end: url(&quot;#markerArrowOpen&quot;);"></path></g><g class="note"><path d="M1348.7433605194092,599.2000122070312C1388.4,604.8 1371.0,593.6 1488.1,599.2C1489.4,613.4 1486.9,604.3 1488.1,630.9C1371.0,636.5 1398.4,625.3 1348.7,630.9C1350.0,625.8 1347.5,613.6 1348.7,599.2" stroke="#000000" fill="#ffffff" style="stroke-width: 2;"></path><text x="1353.7433605194092" y="617.9142990112305" style="font-size: 16px; font-family: Daniel Black;"><tspan x="1353.7433605194092">--force--update</tspan></text></g><g class="signal"><text x="1592.1479473114014" y="655.9142990112305" style="font-size: 16px; font-family: Daniel Black;"><tspan x="1592.1479473114014"></tspan></text><path d="M1328.7,650.9C1413.0,672.0 1455.2,629.8 1855.6,650.9" stroke="#000000" fill="none" style="stroke-width: 2; stroke-dasharray: 6, 2; marker-end: url(&quot;#markerArrowOpen&quot;);"></path></g><g class="note"><path d="M1820.363359451294,670.9142990112305C1879.5,673.7 1844.2,668.1 1890.7,670.9C1889.5,697.6 1892.0,695.0 1890.7,702.6C1840.8,699.8 1839.4,705.4 1820.4,702.6C1821.6,679.3 1819.1,697.6 1820.4,670.9" stroke="#000000" fill="#ffffff" style="stroke-width: 2;"></path><text x="1825.363359451294" y="689.6285858154297" style="font-size: 16px; font-family: Daniel Black;"><tspan x="1825.363359451294">logger()</tspan></text></g><g class="signal"><text x="1592.1479473114014" y="727.6285858154297" style="font-size: 16px; font-family: Daniel Black;"><tspan x="1592.1479473114014"></tspan></text><path d="M1328.7,722.6C1413.0,701.6 1632.7,743.7 1855.6,722.6" stroke="#000000" fill="none" style="stroke-width: 2; marker-end: url(&quot;#markerArrowOpen&quot;);"></path></g><g class="signal"><text x="1944.693998336792" y="747.6285858154297" style="font-size: 16px; font-family: Daniel Black;"><tspan x="1944.693998336792"></tspan></text><path d="M1855.6,742.6C2002.4,749.8 1944.9,735.5 2033.8,742.6" stroke="#000000" fill="none" style="stroke-width: 2; marker-end: url(&quot;#markerArrowOpen&quot;);"></path></g><g class="note"><path d="M1998.6462879180908,762.6285858154297C2009.9,765.4 2015.5,759.8 2069.0,762.6C2070.3,769.9 2067.8,784.4 2069.0,794.3C2021.8,797.2 2057.8,791.5 1998.6,794.3C1997.4,784.2 1999.9,775.1 1998.6,762.6" stroke="#000000" fill="#ffffff" style="stroke-width: 2;"></path><text x="2003.6462879180908" y="781.3428726196289" style="font-size: 16px; font-family: Daniel Black;"><tspan x="2003.6462879180908">logger()</tspan></text></g><g class="signal"><text x="1681.2894115447998" y="819.3428726196289" style="font-size: 16px; font-family: Daniel Black;"><tspan x="1681.2894115447998"></tspan></text><path d="M2033.8,814.3C1794.5,786.1 1498.0,842.5 1328.7,814.3" stroke="#000000" fill="none" style="stroke-width: 2; marker-end: url(&quot;#markerArrowOpen&quot;);"></path></g><g class="signal"><text x="1901.752592086792" y="839.3428726196289" style="font-size: 16px; font-family: Daniel Black;"><tspan x="1901.752592086792"></tspan></text><path d="M1328.7,834.3C1696.6,880.2 1977.2,788.5 2474.8,834.3" stroke="#000000" fill="none" style="stroke-width: 2; marker-end: url(&quot;#markerArrowOpen&quot;);"></path></g><g class="note"><path d="M2439.572649002075,854.3428726196289C2495.5,851.5 2450.8,857.2 2510.0,854.3C2511.2,859.4 2508.7,881.0 2510.0,886.1C2493.1,883.2 2488.6,888.9 2439.6,886.1C2438.3,872.1 2440.8,868.1 2439.6,854.3" stroke="#000000" fill="#ffffff" style="stroke-width: 2;"></path><text x="2444.572649002075" y="873.0571594238281" style="font-size: 16px; font-family: Daniel Black;"><tspan x="2444.572649002075">logger()</tspan></text></g><g class="signal"><text x="1901.752592086792" y="911.0571594238281" style="font-size: 16px; font-family: Daniel Black;"><tspan x="1901.752592086792"></tspan></text><path d="M2474.8,906.1C2182.9,951.9 1775.1,860.2 1328.7,906.1" stroke="#000000" fill="none" style="stroke-width: 2; marker-end: url(&quot;#markerArrowOpen&quot;);"></path></g><g class="note"><path d="M2138.3589000701904,926.0571594238281C2343.2,913.4 2214.3,938.7 2454.8,926.1C2456.0,950.9 2453.5,944.6 2454.8,957.8C2297.9,970.4 2404.1,945.1 2138.4,957.8C2137.1,946.4 2139.6,936.6 2138.4,926.1" stroke="#000000" fill="#ffffff" style="stroke-width: 2;"></path><text x="2144.5017572641373" y="944.7714462280273" style="font-size: 16px; font-family: Daniel Black;"><tspan x="2143.3589000701904">extract() - API error code, message</tspan></text></g><g class="signal"><text x="997.0915660858154" y="975.4571580886841" style="font-size: 16px; font-family: Daniel Black;"><tspan x="997.0915660858154">- error</tspan><tspan dy="1.2em" x="997.0915660858154">- DDNS up to date(cache outdated)</tspan></text><path d="M1328.7,1017.5C1273.1,1003.6 1243.8,1031.5 981.0,1017.5" stroke="#000000" fill="none" style="stroke-width: 2; marker-end: url(&quot;#markerArrowBlock&quot;);"></path></g><g class="note"><path d="M1348.7433605194092,1037.542881011963C1382.2,1032.0 1389.9,1043.1 1488.1,1037.5C1486.9,1045.2 1489.4,1049.2 1488.1,1069.3C1465.8,1074.8 1454.7,1063.7 1348.7,1069.3C1347.5,1058.8 1350.0,1045.2 1348.7,1037.5" stroke="#000000" fill="#ffffff" style="stroke-width: 2;"></path><text x="1353.7433605194092" y="1056.257167816162" style="font-size: 16px; font-family: Daniel Black;"><tspan x="1353.7433605194092">--force--update</tspan></text></g><g class="signal"><text x="1993.3544368743896" y="1094.257167816162" style="font-size: 16px; font-family: Daniel Black;"><tspan x="1993.3544368743896"></tspan></text><path d="M1328.7,1089.3C2445.3,1036.1 1541.4,1142.4 2658.0,1089.3" stroke="#000000" fill="none" style="stroke-width: 2; stroke-dasharray: 6, 2; marker-end: url(&quot;#markerArrowOpen&quot;);"></path></g><g class="note"><path d="M2622.7763385772705,1109.257167816162C2681.9,1106.4 2634.0,1112.1 2693.2,1109.3C2694.4,1114.3 2691.9,1122.0 2693.2,1141.0C2670.1,1138.2 2676.3,1143.8 2622.8,1141.0C2624.0,1132.0 2621.5,1116.9 2622.8,1109.3" stroke="#000000" fill="#ffffff" style="stroke-width: 2;"></path><text x="2627.7763385772705" y="1127.9714546203613" style="font-size: 16px; font-family: Daniel Black;"><tspan x="2627.7763385772705">logger()</tspan></text></g><g class="signal"><text x="1993.3544368743896" y="1165.9714546203613" style="font-size: 16px; font-family: Daniel Black;"><tspan x="1993.3544368743896"></tspan></text><path d="M1328.7,1161.0C2339.0,1214.1 2445.3,1107.8 2658.0,1161.0" stroke="#000000" fill="none" style="stroke-width: 2; marker-end: url(&quot;#markerArrowOpen&quot;);"></path></g><g class="note"><path d="M1998.6462879180908,1180.9714546203613C2052.1,1183.8 2057.8,1178.2 2069.0,1181.0C2067.8,1196.8 2070.3,1205.1 2069.0,1212.7C2049.3,1209.9 2044.0,1215.5 1998.6,1212.7C1997.4,1205.1 1999.9,1200.0 1998.6,1181.0" stroke="#000000" fill="#ffffff" style="stroke-width: 2;"></path><text x="2003.6462879180908" y="1199.6857414245605" style="font-size: 16px; font-family: Daniel Black;"><tspan x="2003.6462879180908">logger()</tspan></text></g><g class="signal"><text x="2345.9004878997803" y="1237.6857414245605" style="font-size: 16px; font-family: Daniel Black;"><tspan x="2345.9004878997803"></tspan></text><path d="M2658.0,1232.7C2237.0,1257.7 2208.0,1207.7 2033.8,1232.7" stroke="#000000" fill="none" style="stroke-width: 2; marker-end: url(&quot;#markerArrowOpen&quot;);"></path></g><g class="signal"><text x="1681.2894115447998" y="1257.6857414245605" style="font-size: 16px; font-family: Daniel Black;"><tspan x="1681.2894115447998"></tspan></text><path d="M2033.8,1252.7C1653.6,1280.9 1803.8,1224.5 1328.7,1252.7" stroke="#000000" fill="none" style="stroke-width: 2; marker-end: url(&quot;#markerArrowOpen&quot;);"></path></g><g class="signal"><text x="1901.752592086792" y="1277.6857414245605" style="font-size: 16px; font-family: Daniel Black;"><tspan x="1901.752592086792"></tspan></text><path d="M1328.7,1272.7C1612.5,1318.5 2226.5,1226.8 2474.8,1272.7" stroke="#000000" fill="none" style="stroke-width: 2; marker-end: url(&quot;#markerArrowOpen&quot;);"></path></g><g class="signal"><text x="1901.752592086792" y="1297.6857414245605" style="font-size: 16px; font-family: Daniel Black;"><tspan x="1901.752592086792"></tspan></text><path d="M2474.8,1292.7C1666.8,1246.8 2291.4,1338.5 1328.7,1292.7" stroke="#000000" fill="none" style="stroke-width: 2; marker-end: url(&quot;#markerArrowOpen&quot;);"></path></g><g class="note"><path d="M2053.8354625701904,1312.6857414245605C2358.5,1328.7 2203.9,1296.6 2454.8,1312.7C2456.0,1336.8 2453.5,1338.9 2454.8,1344.4C2175.2,1328.4 2118.0,1360.4 2053.8,1344.4C2055.1,1330.1 2052.6,1321.5 2053.8,1312.7" stroke="#000000" fill="#ffffff" style="stroke-width: 2;"></path><text x="2059.9783197641373" y="1331.4000282287598" style="font-size: 16px; font-family: Daniel Black;"><tspan x="2058.8354625701904">extract_api_err - API error code, message</tspan></text></g><g class="signal"><text x="1130.6261678934097" y="1373.9714574813843" style="font-size: 16px; font-family: Daniel Black;"><tspan x="1129.483310699463">error</tspan></text><path d="M1328.7,1380.4C1103.4,1394.3 1036.6,1366.5 981.0,1380.4" stroke="#000000" fill="none" style="stroke-width: 2; marker-end: url(&quot;#markerArrowBlock&quot;);"></path></g><g class="note"><path d="M971.0056285858154,1400.4000282287598C1240.9,1415.1 1260.3,1385.7 1338.7,1400.4C1337.7,1406.9 1339.8,1404.7 1338.7,1427.5C1250.5,1412.8 1059.3,1442.3 971.0,1427.5C972.1,1412.4 969.9,1406.9 971.0,1400.4" stroke="#000000" fill="#ffffff" style="stroke-width: 2;"></path><text x="976.0056285858154" y="1419.114315032959" style="font-size: 16px; font-family: Daniel Black;"><tspan x="976.0056285858154">⮬ next DDNS record ⮝</tspan></text></g><g class="signal"><text x="1154.8744945526123" y="1452.5428867340088" style="font-size: 16px; font-family: Daniel Black;"><tspan x="1154.8744945526123"></tspan></text><path d="M1328.7,1447.5C1064.5,1461.5 1245.3,1433.6 981.0,1447.5" stroke="#000000" fill="none" style="stroke-width: 2; marker-end: url(&quot;#markerArrowBlock&quot;);"></path></g><g class="signal"><text x="587.2904872894287" y="1477.6857442855835" style="font-size: 16px; font-family: Daniel Black;"><tspan x="587.2904872894287">✦ no more DDNS records ✦</tspan></text><path d="M981.0,1484.7C671.3,1506.0 669.8,1463.3 447.3,1484.7" stroke="#000000" fill="none" style="stroke-width: 2; marker-end: url(&quot;#markerArrowBlock&quot;);"></path></g></svg>